<?xml version="1.0" standalone="no"?>
<!DOCTYPE svg PUBLIC "-//W3C//DTD SVG 20010904//EN"
 "http://www.w3.org/TR/2001/REC-SVG-20010904/DTD/svg10.dtd">
<svg version="1.0" xmlns="http://www.w3.org/2000/svg"
 width="320.000000pt" height="320.000000pt" viewBox="0 0 320.000000 320.000000"
 preserveAspectRatio="xMidYMid meet">
<metadata>
Created by potrace 1.11, written by Peter Selinger 2001-2013
</metadata>
<g transform="translate(0.000000,320.000000) scale(0.100000,-0.100000)"
fill="#000000" stroke="none">
<path d="M1400 3190 c-25 -4 -63 -11 -85 -14 -123 -20 -298 -77 -418 -137
-262 -132 -459 -304 -625 -544 -62 -90 -173 -314 -193 -390 -70 -264 -74 -293
-73 -525 1 -199 16 -298 70 -473 33 -105 131 -308 191 -395 268 -389 639 -623
1109 -699 92 -15 411 -8 509 10 146 28 304 82 436 150 379 193 658 512 792
907 40 116 53 165 62 225 3 22 9 65 14 95 17 100 7 393 -18 508 -55 262 -160
488 -319 692 -66 83 -226 235 -317 300 -179 127 -417 233 -599 266 -146 26
-195 31 -333 31 -87 0 -178 -3 -203 -7z m-410 -1053 c30 -15 68 -37 84 -50
l29 -23 42 45 43 45 124 -2 c141 -3 169 -7 220 -33 64 -33 86 -67 159 -254 91
-231 179 -453 190 -484 5 -13 12 -22 14 -19 7 7 145 412 145 426 0 11 -63 179
-100 267 -4 11 -11 28 -14 37 -3 11 -21 19 -50 23 -25 4 -47 14 -50 22 -5 12
14 14 137 11 134 -3 145 -5 189 -31 26 -15 58 -42 71 -60 14 -17 59 -122 102
-232 43 -110 83 -213 90 -230 7 -16 29 -73 50 -125 20 -52 40 -98 44 -102 3
-4 37 81 73 190 37 108 90 264 117 345 28 82 51 154 51 162 0 7 -27 24 -60 37
-101 39 -81 49 95 47 177 -1 196 -11 89 -49 -55 -19 -68 -28 -79 -54 -6 -17
-93 -271 -191 -563 -173 -514 -180 -533 -204 -533 -27 0 -8 -43 -236 535 -47
121 -89 224 -91 228 -3 5 -50 -123 -105 -285 -54 -161 -113 -335 -130 -385
-27 -81 -35 -93 -54 -93 -13 0 -25 4 -29 9 -5 10 -176 440 -352 891 -53 135
-98 248 -102 251 -3 4 -18 9 -33 13 l-28 6 0 -143 0 -143 -35 4 c-19 2 -35 9
-35 14 0 26 -65 141 -104 185 -105 116 -257 128 -346 27 -86 -98 -123 -247
-123 -499 -1 -192 24 -340 73 -434 25 -48 82 -105 128 -127 44 -21 143 -28
192 -13 113 35 230 175 230 273 0 29 20 49 36 35 14 -11 -1 -85 -30 -153 -26
-58 -107 -133 -184 -169 -63 -30 -73 -32 -182 -31 -170 0 -289 44 -389 143
-118 115 -164 243 -165 461 -1 131 7 191 38 274 84 232 245 346 486 342 93 -1
111 -4 160 -29z"/>
</g>
</svg>
